{
  "accessors": [
    {
      "bufferView": 3,
      "componentType": 5126,
      "count": 5786,
      "max": [
        87.98871612548828,
        16.932891845703125,
        4.635972023010254
      ],
      "min": [
        -39.7545051574707,
        -13.800705909729004,
        -6.1998748779296875
      ],
      "type": "VEC3"
    },
    {
      "bufferView": 3,
      "byteOffset": 69432,
      "componentType": 5126,
      "count": 5786,
      "max": [
        1.0,
        1.0,
        1.0
      ],
      "min": [
        -1.0,
        -1.0,
        -1.0
      ],
      "type": "VEC3"
    },
    {
      "bufferView": 4,
      "componentType": 5126,
      "count": 5786,
      "max": [
        1.0,
        1.0,
        1.0,
        1.0
      ],
      "min": [
        -1.0,
        -1.0,
        -1.0,
        -1.0
      ],
      "type": "VEC4"
    },
    {
      "bufferView": 2,
      "componentType": 5126,
      "count": 5786,
      "max": [
        1.9970703125,
        0.998046875
      ],
      "min": [
        0.001953125,
        0.0030269622802734375
      ],
      "type": "VEC2"
    },
    {
      "bufferView": 1,
      "componentType": 5125,
      "count": 18564,
      "type": "SCALAR"
    },
    {
      "bufferView": 3,
      "byteOffset": 138864,
      "componentType": 5126,
      "count": 198,
      "max": [
        68.74942779541016,
        13.71891975402832,
        2.3431448936462402
      ],
      "min": [
        -1.087311029434204,
        10.02725601196289,
        -2.3431448936462402
      ],
      "type": "VEC3"
    },
    {
      "bufferView": 3,
      "byteOffset": 141240,
      "componentType": 5126,
      "count": 198,
      "max": [
        0.9999690055847168,
        1.0,
        0.9677841663360596
      ],
      "min": [
        -0.9929882884025574,
        -0.9999690055847168,
        -0.9677841663360596
      ],
      "type": "VEC3"
    },
    {
      "bufferView": 2,
      "byteOffset": 46288,
      "componentType": 5126,
      "count": 198,
      "max": [
        2.923828125,
        1.6416015625
      ],
      "min": [
        -0.68212890625,
        -1.271484375
      ],
      "type": "VEC2"
    },
    {
      "bufferView": 1,
      "byteOffset": 74256,
      "componentType": 5125,
      "count": 828,
      "type": "SCALAR"
    },
    {
      "bufferView": 3,
      "byteOffset": 143616,
      "componentType": 5126,
      "count": 584,
      "max": [
        66.9351806640625,
        13.441669464111328,
        0.8062443733215332
      ],
      "min": [
        1.3449687957763672,
        10.34891128540039,
        -0.8062410950660706
      ],
      "type": "VEC3"
    },
    {
      "bufferView": 3,
      "byteOffset": 150624,
      "componentType": 5126,
      "count": 584,
      "max": [
        0.9938837289810181,
        1.0,
        0.9999690055847168
      ],
      "min": [
        -0.9961473941802979,
        -1.0,
        -0.9999690055847168
      ],
      "type": "VEC3"
    },
    {
      "bufferView": 2,
      "byteOffset": 47872,
      "componentType": 5126,
      "count": 584,
      "max": [
        1.041015625,
        1.0
      ],
      "min": [
        3.0517578125e-05,
        3.0517578125e-05
      ],
      "type": "VEC2"
    },
    {
      "bufferView": 1,
      "byteOffset": 77568,
      "componentType": 5125,
      "count": 2640,
      "type": "SCALAR"
    },
    {
      "bufferView": 3,
      "byteOffset": 157632,
      "componentType": 5126,
      "count": 532,
      "max": [
        40.450321197509766,
        9.71725082397461,
        2.0603067874908447
      ],
      "min": [
        16.610002517700195,
        -21.790634155273438,
        -2.0603067874908447
      ],
      "type": "VEC3"
    },
    {
      "bufferView": 3,
      "byteOffset": 164016,
      "componentType": 5126,
      "count": 532,
      "max": [
        0.9998760223388672,
        1.0,
        1.0
      ],
      "min": [
        -1.0,
        -0.8272590637207031,
        -1.0
      ],
      "type": "VEC3"
    },
    {
      "bufferView": 4,
      "byteOffset": 92576,
      "componentType": 5126,
      "count": 532,
      "max": [
        1.0,
        0.8040474653244019,
        1.0,
        1.0
      ],
      "min": [
        -1.0,
        -0.7885023355484009,
        -1.0,
        -1.0
      ],
      "type": "VEC4"
    },
    {
      "bufferView": 2,
      "byteOffset": 52544,
      "componentType": 5126,
      "count": 532,
      "max": [
        0.9775390625,
        0.98779296875
      ],
      "min": [
        0.00806427001953125,
        0.00806427001953125
      ],
      "type": "VEC2"
    },
    {
      "bufferView": 2,
      "byteOffset": 56800,
      "componentType": 5126,
      "count": 532,
      "max": [
        1.9375,
        0.998046875
      ],
      "min": [
        0.0007367134094238281,
        0.37255859375
      ],
      "type": "VEC2"
    },
    {
      "bufferView": 2,
      "byteOffset": 61056,
      "componentType": 5126,
      "count": 532,
      "max": [
        0.9775390625,
        0.9873046875
      ],
      "min": [
        0.00806427001953125,
        0.00806427001953125
      ],
      "type": "VEC2"
    },
    {
      "bufferView": 2,
      "byteOffset": 65312,
      "componentType": 5126,
      "count": 532,
      "max": [
        0.9775390625,
        0.98779296875
      ],
      "min": [
        0.00806427001953125,
        0.00806427001953125
      ],
      "type": "VEC2"
    },
    {
      "bufferView": 2,
      "byteOffset": 69568,
      "componentType": 5126,
      "count": 532,
      "max": [
        0.9775390625,
        0.98779296875
      ],
      "min": [
        0.00806427001953125,
        0.00806427001953125
      ],
      "type": "VEC2"
    },
    {
      "bufferView": 2,
      "byteOffset": 73824,
      "componentType": 5126,
      "count": 532,
      "max": [
        0.9775390625,
        0.98779296875
      ],
      "min": [
        0.00806427001953125,
        0.00806427001953125
      ],
      "type": "VEC2"
    },
    {
      "bufferView": 1,
      "byteOffset": 88128,
      "componentType": 5125,
      "count": 1770,
      "type": "SCALAR"
    },
    {
      "bufferView": 5,
      "componentType": 5126,
      "count": 16,
      "max": [
        1.0,
        0.9396923184394836,
        1.0,
        0.0,
        0.46984630823135376,
        1.0000003576278687,
        1.0000003576278687,
        0.0,
        0.8137978315353394,
        1.788139627478813e-07,
        1.0,
        0.0,
        63.22422409057617,
        0.1964714080095291,
        20.28246307373047,
        1.0
      ],
      "min": [
        -1.1920930376163597e-07,
        -1.1920926112907182e-07,
        -9.64086837029754e-08,
        0.0,
        0.0,
        -0.17101003229618073,
        0.0,
        0.0,
        -1.0000001192092896,
        -1.0000001192092896,
        -0.4999999403953552,
        0.0,
        -88.21404266357422,
        -20.859445571899414,
        -46.613189697265625,
        1.0
      ],
      "type": "MAT4"
    },
    {
      "bufferView": 0,
      "componentType": 5123,
      "count": 5786,
      "type": "VEC4"
    },
    {
      "bufferView": 4,
      "byteOffset": 101088,
      "componentType": 5126,
      "count": 5786,
      "max": [
        1.0,
        0.0,
        0.0,
        0.0
      ],
      "min": [
        1.0,
        0.0,
        0.0,
        0.0
      ],
      "type": "VEC4"
    },
    {
      "bufferView": 0,
      "byteOffset": 46288,
      "componentType": 5123,
      "count": 198,
      "type": "VEC4"
    },
    {
      "bufferView": 4,
      "byteOffset": 193664,
      "componentType": 5126,
      "count": 198,
      "max": [
        1.0,
        0.0,
        0.0,
        0.0
      ],
      "min": [
        1.0,
        0.0,
        0.0,
        0.0
      ],
      "type": "VEC4"
    },
    {
      "bufferView": 0,
      "byteOffset": 47872,
      "componentType": 5123,
      "count": 584,
      "type": "VEC4"
    },
    {
      "bufferView": 4,
      "byteOffset": 196832,
      "componentType": 5126,
      "count": 584,
      "max": [
        1.0,
        0.0,
        0.0,
        0.0
      ],
      "min": [
        1.0,
        0.0,
        0.0,
        0.0
      ],
      "type": "VEC4"
    }
  ],
  "asset": {
    "extras": {
      "author": "ILilMitch (https://sketchfab.com/ILilMitch)",
      "license": "CC-BY-4.0 (http://creativecommons.org/licenses/by/4.0/)",
      "source": "https://sketchfab.com/3d-models/prime-vandal-blue-valorant-4cfe82afe62a40baab27ccc224e456c9",
      "title": "Prime Vandal (Blue) | Valorant"
    },
    "generator": "Sketchfab-16.65.0",
    "version": "2.0"
  },
  "bufferViews": [
    {
      "buffer": 0,
      "byteLength": 52544,
      "byteStride": 8,
      "name": "shortBufferViews",
      "target": 34962
    },
    {
      "buffer": 0,
      "byteLength": 95208,
      "byteOffset": 52544,
      "name": "floatBufferViews",
      "target": 34963
    },
    {
      "buffer": 0,
      "byteLength": 78080,
      "byteOffset": 147752,
      "byteStride": 8,
      "name": "floatBufferViews",
      "target": 34962
    },
    {
      "buffer": 0,
      "byteLength": 170400,
      "byteOffset": 225832,
      "byteStride": 12,
      "name": "floatBufferViews",
      "target": 34962
    },
    {
      "buffer": 0,
      "byteLength": 206176,
      "byteOffset": 396232,
      "byteStride": 16,
      "name": "floatBufferViews",
      "target": 34962
    },
    {
      "buffer": 0,
      "byteLength": 1024,
      "byteOffset": 602408,
      "name": "floatBufferViews"
    }
  ],
  "buffers": [
    {
      "byteLength": 603432,
      "uri": "scene.bin"
    }
  ],
  "extensionsUsed": [
    "KHR_texture_transform",
    "KHR_materials_specular",
    "KHR_materials_emissive_strength"
  ],
  "images": [
    {
      "uri": "textures/AK_Hypebeast_MI_GN_AK_Lv1_HypeBeast_Skelmesh_mo_baseColor.png"
    },
    {
      "uri": "textures/AK_Hypebeast_MI_GN_AK_Lv1_HypeBeast_Skelmesh_mo_metallicRoughness.png"
    },
    {
      "uri": "textures/AK_Hypebeast_MI_GN_AK_Lv1_HypeBeast_Skelmesh_mo_normal.png"
    },
    {
      "uri": "textures/AK_Hypebeast_MI_GN_AK_Lv1_HypeBeast_Skelmesh_mo_specularf0.png"
    },
    {
      "uri": "textures/AK_Hypebeast_MI_GN_AK_Magazine_Hypebeast_Staticmesh_mo_baseColor.png"
    },
    {
      "uri": "textures/AK_Hypebeast_MI_GN_AK_Magazine_Hypebeast_Staticmesh_mo_metallicRoughness.png"
    },
    {
      "uri": "textures/AK_Hypebeast_MI_GN_AK_Magazine_Hypebeast_Staticmesh_mo_normal.png"
    }
  ],
  "materials": [
    {
      "doubleSided": true,
      "extensions": {
        "KHR_materials_specular": {
          "specularColorFactor": [
            1.0,
            1.0,
            1.0
          ],
          "specularFactor": 1.0,
          "specularTexture": {
            "index": 3
          }
        }
      },
      "name": "AK_Hypebeast_MI_GN_AK_Lv1_HypeBeast_Skelmesh_mo",
      "normalTexture": {
        "extensions": {
          "KHR_texture_transform": {
            "offset": [
              -0.000978953,
              -0.00304211
            ],
            "scale": [
              0.501224,
              1.00501
            ]
          }
        },
        "index": 2
      },
      "pbrMetallicRoughness": {
        "baseColorTexture": {
          "extensions": {
            "KHR_texture_transform": {
              "offset": [
                -0.000978953,
                -0.00304211
              ],
              "scale": [
                0.501224,
                1.00501
              ]
            }
          },
          "index": 0
        },
        "metallicRoughnessTexture": {
          "extensions": {
            "KHR_texture_transform": {
              "offset": [
                -0.000978953,
                -0.00304211
              ],
              "scale": [
                0.501224,
                1.00501
              ]
            }
          },
          "index": 1
        }
      }
    },
    {
      "alphaMode": "BLEND",
      "doubleSided": true,
      "name": "Hypebeast_Glass_MI",
      "pbrMetallicRoughness": {
        "baseColorFactor": [
          0.0,
          0.0,
          0.0,
          0.0806345
        ],
        "metallicFactor": 0.0,
        "roughnessFactor": 0.5
      }
    },
    {
      "doubleSided": true,
      "emissiveFactor": [
        0.23259339287590486,
        0.39857372667321,
        0.9700679790705267
      ],
      "extensions": {
        "KHR_materials_emissive_strength": {
          "emissiveStrength": 4.800014628616011
        },
        "KHR_materials_specular": {
          "specularColorFactor": [
            1.0,
            1.0,
            1.0
          ],
          "specularFactor": 0.5043824895466348
        }
      },
      "name": "Hypebeast_Emissive_Inner_MI_GN_AK_Lv1_HypeBeast_Skelmesh_mo",
      "pbrMetallicRoughness": {
        "baseColorFactor": [
          0.0,
          0.0,
          0.0,
          1.0
        ]
      }
    },
    {
      "doubleSided": true,
      "name": "AK_Hypebeast_MI_GN_AK_Magazine_Hypebeast_Staticmesh_mo",
      "normalTexture": {
        "extensions": {
          "KHR_texture_transform": {
            "offset": [
              -0.00831818,
              -0.00823112
            ],
            "scale": [
              1.03149,
              1.02069
            ]
          }
        },
        "index": 6
      },
      "pbrMetallicRoughness": {
        "baseColorTexture": {
          "extensions": {
            "KHR_texture_transform": {
              "offset": [
                -0.00831818,
                -0.00823112
              ],
              "scale": [
                1.03149,
                1.02069
              ]
            }
          },
          "index": 4
        },
        "metallicRoughnessTexture": {
          "extensions": {
            "KHR_texture_transform": {
              "offset": [
                -0.00831818,
                -0.00823112
              ],
              "scale": [
                1.03149,
                1.02069
              ]
            }
          },
          "index": 5
        }
      }
    }
  ],
  "meshes": [
    {
      "name": "Object_0",
      "primitives": [
        {
          "attributes": {
            "JOINTS_0": 24,
            "NORMAL": 1,
            "POSITION": 0,
            "TANGENT": 2,
            "TEXCOORD_0": 3,
            "TEXCOORD_1": 3,
            "TEXCOORD_2": 3,
            "TEXCOORD_3": 3,
            "WEIGHTS_0": 25
          },
          "indices": 4,
          "material": 0,
          "mode": 4
        }
      ]
    },
    {
      "name": "Object_1",
      "primitives": [
        {
          "attributes": {
            "JOINTS_0": 26,
            "NORMAL": 6,
            "POSITION": 5,
            "TEXCOORD_0": 7,
            "WEIGHTS_0": 27
          },
          "indices": 8,
          "material": 1,
          "mode": 4
        }
      ]
    },
    {
      "name": "Object_2",
      "primitives": [
        {
          "attributes": {
            "JOINTS_0": 28,
            "NORMAL": 10,
            "POSITION": 9,
            "TEXCOORD_0": 11,
            "WEIGHTS_0": 29
          },
          "indices": 12,
          "material": 2,
          "mode": 4
        }
      ]
    },
    {
      "name": "Object_3",
      "primitives": [
        {
          "attributes": {
            "NORMAL": 14,
            "POSITION": 13,
            "TANGENT": 15,
            "TEXCOORD_0": 16,
            "TEXCOORD_1": 17,
            "TEXCOORD_2": 18,
            "TEXCOORD_3": 19,
            "TEXCOORD_4": 20,
            "TEXCOORD_5": 21
          },
          "indices": 22,
          "material": 3,
          "mode": 4
        }
      ]
    }
  ],
  "nodes": [
    {
      "children": [
        1
      ],
      "matrix": [
        1.0,
        0.0,
        0.0,
        0.0,
        0.0,
        2.220446049250313e-16,
        -1.0,
        0.0,
        0.0,
        1.0,
        2.220446049250313e-16,
        0.0,
        0.0,
        0.0,
        0.0,
        1.0
      ],
      "name": "Sketchfab_model"
    },
    {
      "children": [
        2
      ],
      "name": "root"
    },
    {
      "children": [
        3,
        24
      ],
      "matrix": [
        1.0,
        0.0,
        0.0,
        0.0,
        0.0,
        2.220446049250313e-16,
        1.0,
        0.0,
        0.0,
        -1.0,
        2.220446049250313e-16,
        0.0,
        0.0,
        0.0,
        0.0,
        1.0
      ],
      "name": "GLTF_SceneRootNode"
    },
    {
      "children": [
        4
      ],
      "matrix": [
        1.0,
        0.0,
        0.0,
        0.0,
        0.0,
        1.0,
        0.0,
        0.0,
        0.0,
        0.0,
        1.0,
        0.0,
        -2630.0,
        30.0,
        -19810.0,
        1.0
      ],
      "name": "GN_AK_Lv1_HypeBeast_Skelmesh_mo_0"
    },
    {
      "children": [
        5,
        6,
        7,
        8
      ],
      "name": "GLTF_created_0"
    },
    {
      "children": [
        9
      ],
      "name": "GLTF_created_0_rootJoint"
    },
    {
      "mesh": 0,
      "name": "Object_6",
      "skin": 0
    },
    {
      "mesh": 1,
      "name": "Object_7",
      "skin": 0
    },
    {
      "mesh": 2,
      "name": "Object_8",
      "skin": 0
    },
    {
      "children": [
        10
      ],
      "name": "Skeleton_1",
      "rotation": [
        2.107342389479072e-08,
        0.7071068286895752,
        1.0536709993402837e-07,
        0.7071067094802856
      ]
    },
    {
      "children": [
        11,
        12,
        13,
        14,
        15,
        16,
        17,
        18,
        19,
        20,
        21,
        22,
        23
      ],
      "name": "Root_2"
    },
    {
      "name": "Muzzle_3",
      "rotation": [
        -0.5,
        -0.4999999403953552,
        -0.5000001192092896,
        0.4999999403953552
      ],
      "translation": [
        -1.4519646356347948e-05,
        8.91380500793457,
        88.21405029296875
      ]
    },
    {
      "name": "Ejection_4",
      "rotation": [
        -0.29883620142936707,
        -0.6408563256263733,
        -0.7044160962104797,
        -0.06162850558757782
      ],
      "translation": [
        -2.5911335945129395,
        10.882805824279785,
        24.995420455932617
      ]
    },
    {
      "name": "Bullet_5",
      "rotation": [
        -0.4999999701976776,
        -0.4999999701976776,
        -0.5000001192092896,
        0.49999991059303284
      ],
      "translation": [
        -0.19647397100925446,
        8.262280464172363,
        21.96961212158203
      ]
    },
    {
      "name": "Underbarrel_6",
      "rotation": [
        -0.5,
        -0.4999999403953552,
        -0.5000000596046448,
        0.4999999701976776
      ],
      "translation": [
        -9.14785596251022e-06,
        5.338720798492432,
        44.38056564331055
      ]
    },
    {
      "name": "Stat_Track_7",
      "rotation": [
        -0.4999999701976776,
        -0.5,
        -0.5000001192092896,
        0.49999991059303284
      ],
      "translation": [
        1.8560512065887451,
        12.511259078979492,
        8.7490816116333
      ]
    },
    {
      "name": "Reflex_8",
      "rotation": [
        -0.4999999701976776,
        -0.4999999701976776,
        -0.5000001192092896,
        0.4999999403953552
      ],
      "translation": [
        -0.009759549982845783,
        13.875717163085938,
        23.021820068359375
      ]
    },
    {
      "name": "Magazine_Main_9",
      "rotation": [
        -0.5000000596046448,
        -0.49999991059303284,
        -0.5000001192092896,
        0.4999999403953552
      ],
      "translation": [
        -7.974699656188022e-06,
        -6.463283061981201,
        28.28110122680664
      ]
    },
    {
      "name": "Charging_Handle_10",
      "translation": [
        3.075735569000244,
        11.75589656829834,
        29.933446884155273
      ]
    },
    {
      "name": "Ejection_Button_11",
      "translation": [
        -2.5926851776603144e-06,
        1.0481566190719604,
        17.064199447631836
      ]
    },
    {
      "name": "Trigger_12",
      "translation": [
        -6.613310006287065e-07,
        4.376275062561035,
        8.862410545349121
      ]
    },
    {
      "name": "Gun_Buddy_13",
      "rotation": [
        -0.4999999701976776,
        -0.4999999701976776,
        -0.5000001192092896,
        0.49999991059303284
      ],
      "translation": [
        3.677199125289917,
        7.49953031539917,
        19.841087341308594
      ]
    },
    {
      "name": "Magazine_Extra_14",
      "rotation": [
        -0.5000000596046448,
        -0.49999991059303284,
        -0.5000001192092896,
        0.4999999403953552
      ],
      "translation": [
        9.547311492497101e-06,
        -20.282455444335938,
        -63.22422790527344
      ]
    },
    {
      "name": "Left_Hand_Target_15",
      "translation": [
        -7.07430308466428e-06,
        5.338720321655273,
        46.61319351196289
      ]
    },
    {
      "children": [
        25
      ],
      "matrix": [
        1.0,
        0.0,
        0.0,
        0.0,
        0.0,
        1.0,
        0.0,
        0.0,
        0.0,
        0.0,
        1.0,
        0.0,
        -2630.0,
        30.0,
        -19810.0,
        1.0
      ],
      "name": "GN_AK_Magazine_Hypebeast_Staticmesh_mo_16"
    },
    {
      "mesh": 3,
      "name": "Object_25"
    }
  ],
  "samplers": [
    {
      "magFilter": 9729,
      "minFilter": 9987,
      "wrapS": 10497,
      "wrapT": 10497
    }
  ],
  "scene": 0,
  "scenes": [
    {
      "name": "Sketchfab_Scene",
      "nodes": [
        0
      ]
    }
  ],
  "skins": [
    {
      "inverseBindMatrices": 23,
      "joints": [
        5,
        9,
        10,
        11,
        12,
        13,
        14,
        15,
        16,
        17,
        18,
        19,
        20,
        21,
        22,
        23
      ],
      "skeleton": 5
    }
  ],
  "textures": [
    {
      "sampler": 0,
      "source": 0
    },
    {
      "sampler": 0,
      "source": 1
    },
    {
      "sampler": 0,
      "source": 2
    },
    {
      "sampler": 0,
      "source": 3
    },
    {
      "sampler": 0,
      "source": 4
    },
    {
      "sampler": 0,
      "source": 5
    },
    {
      "sampler": 0,
      "source": 6
    }
  ]
}
