{
  "accessors": [
    {
      "bufferView": 2,
      "componentType": 5126,
      "count": 1424,
      "max": [
        1.9225080013275146,
        37.805728912353516,
        9.350069046020508
      ],
      "min": [
        -1.9225080013275146,
        -40.51530838012695,
        -9.070572853088379
      ],
      "type": "VEC3"
    },
    {
      "bufferView": 2,
      "byteOffset": 17088,
      "componentType": 5126,
      "count": 1424,
      "max": [
        1.0,
        0.9999070167541504,
        1.0
      ],
      "min": [
        -1.0,
        -1.0,
        -1.0
      ],
      "type": "VEC3"
    },
    {
      "bufferView": 3,
      "componentType": 5126,
      "count": 1424,
      "max": [
        1.0,
        1.0,
        1.0,
        1.0
      ],
      "min": [
        -1.0,
        -1.0,
        -1.0,
        1.0
      ],
      "type": "VEC4"
    },
    {
      "bufferView": 1,
      "componentType": 5126,
      "count": 1424,
      "max": [
        0.997389018535614,
        0.9939060211181641
      ],
      "min": [
        0.002440999960526824,
        0.002440999960526824
      ],
      "type": "VEC2"
    },
    {
      "bufferView": 0,
      "componentType": 5125,
      "count": 3522,
      "type": "SCALAR"
    },
    {
      "bufferView": 2,
      "byteOffset": 34176,
      "componentType": 5126,
      "count": 9992,
      "max": [
        2.886667013168335,
        40.43701934814453,
        9.397390365600586
      ],
      "min": [
        -2.8866660594940186,
        -40.51530838012695,
        -9.37948989868164
      ],
      "type": "VEC3"
    },
    {
      "bufferView": 2,
      "byteOffset": 154080,
      "componentType": 5126,
      "count": 9992,
      "max": [
        1.0,
        1.0,
        1.0
      ],
      "min": [
        -1.0,
        -1.0,
        -1.0
      ],
      "type": "VEC3"
    },
    {
      "bufferView": 3,
      "byteOffset": 22784,
      "componentType": 5126,
      "count": 9992,
      "max": [
        1.0,
        1.0,
        1.0,
        1.0
      ],
      "min": [
        -1.0,
        -1.0,
        -1.0,
        -1.0
      ],
      "type": "VEC4"
    },
    {
      "bufferView": 1,
      "byteOffset": 11392,
      "componentType": 5126,
      "count": 9992,
      "max": [
        0.9975590109825134,
        0.991694986820221
      ],
      "min": [
        0.002440999960526824,
        0.005683000199496746
      ],
      "type": "VEC2"
    },
    {
      "bufferView": 0,
      "byteOffset": 14088,
      "componentType": 5125,
      "count": 31695,
      "type": "SCALAR"
    },
    {
      "bufferView": 2,
      "byteOffset": 273984,
      "componentType": 5126,
      "count": 4692,
      "max": [
        2.1814239025115967,
        40.51533508300781,
        9.328760147094727
      ],
      "min": [
        -2.1814239025115967,
        -40.51530838012695,
        -9.012062072753906
      ],
      "type": "VEC3"
    },
    {
      "bufferView": 2,
      "byteOffset": 330288,
      "componentType": 5126,
      "count": 4692,
      "max": [
        1.0,
        1.0,
        1.0
      ],
      "min": [
        -1.0,
        -1.0,
        -1.0
      ],
      "type": "VEC3"
    },
    {
      "bufferView": 3,
      "byteOffset": 182656,
      "componentType": 5126,
      "count": 4692,
      "max": [
        1.0,
        1.0,
        1.0,
        1.0
      ],
      "min": [
        -1.0,
        -1.0,
        -1.0,
        1.0
      ],
      "type": "VEC4"
    },
    {
      "bufferView": 1,
      "byteOffset": 91328,
      "componentType": 5126,
      "count": 4692,
      "max": [
        0.997518002986908,
        0.9956510066986084
      ],
      "min": [
        0.002440999960526824,
        0.005683000199496746
      ],
      "type": "VEC2"
    },
    {
      "bufferView": 0,
      "byteOffset": 140868,
      "componentType": 5125,
      "count": 13380,
      "type": "SCALAR"
    }
  ],
  "asset": {
    "extras": {
      "author": "woop5r (https://sketchfab.com/woop5r)",
      "license": "CC-BY-NC-4.0 (http://creativecommons.org/licenses/by-nc/4.0/)",
      "source": "https://sketchfab.com/3d-models/valorant-phantom-fan-art-7e25bc972db74cd1b95a90d01c794192",
      "title": "Valorant - Phantom - Fan Art"
    },
    "generator": "Sketchfab-16.72.0",
    "version": "2.0"
  },
  "bufferViews": [
    {
      "buffer": 0,
      "byteLength": 194388,
      "name": "floatBufferViews",
      "target": 34963
    },
    {
      "buffer": 0,
      "byteLength": 128864,
      "byteOffset": 194388,
      "byteStride": 8,
      "name": "floatBufferViews",
      "target": 34962
    },
    {
      "buffer": 0,
      "byteLength": 386592,
      "byteOffset": 323252,
      "byteStride": 12,
      "name": "floatBufferViews",
      "target": 34962
    },
    {
      "buffer": 0,
      "byteLength": 257728,
      "byteOffset": 709844,
      "byteStride": 16,
      "name": "floatBufferViews",
      "target": 34962
    }
  ],
  "buffers": [
    {
      "byteLength": 967572,
      "uri": "scene.bin"
    }
  ],
  "images": [
    {
      "uri": "textures/lambert1SG_baseColor.png"
    },
    {
      "uri": "textures/lambert1SG_metallicRoughness.png"
    },
    {
      "uri": "textures/lambert1SG_normal.png"
    }
  ],
  "materials": [
    {
      "doubleSided": true,
      "name": "lambert1SG",
      "normalTexture": {
        "index": 2
      },
      "pbrMetallicRoughness": {
        "baseColorTexture": {
          "index": 0
        },
        "metallicRoughnessTexture": {
          "index": 1
        }
      }
    }
  ],
  "meshes": [
    {
      "name": "Object_0",
      "primitives": [
        {
          "attributes": {
            "NORMAL": 1,
            "POSITION": 0,
            "TANGENT": 2,
            "TEXCOORD_0": 3
          },
          "indices": 4,
          "material": 0,
          "mode": 4
        }
      ]
    },
    {
      "name": "Object_1",
      "primitives": [
        {
          "attributes": {
            "NORMAL": 6,
            "POSITION": 5,
            "TANGENT": 7,
            "TEXCOORD_0": 8
          },
          "indices": 9,
          "material": 0,
          "mode": 4
        }
      ]
    },
    {
      "name": "Object_2",
      "primitives": [
        {
          "attributes": {
            "NORMAL": 11,
            "POSITION": 10,
            "TANGENT": 12,
            "TEXCOORD_0": 13
          },
          "indices": 14,
          "material": 0,
          "mode": 4
        }
      ]
    }
  ],
  "nodes": [
    {
      "children": [
        1
      ],
      "matrix": [
        1.0,
        0.0,
        0.0,
        0.0,
        0.0,
        2.220446049250313e-16,
        -1.0,
        0.0,
        0.0,
        1.0,
        2.220446049250313e-16,
        0.0,
        0.0,
        0.0,
        0.0,
        1.0
      ],
      "name": "Sketchfab_model"
    },
    {
      "children": [
        2,
        3,
        4
      ],
      "name": "Gun.obj.cleaner.materialmerger.gles"
    },
    {
      "mesh": 0,
      "name": "Object_2"
    },
    {
      "mesh": 1,
      "name": "Object_3"
    },
    {
      "mesh": 2,
      "name": "Object_4"
    }
  ],
  "samplers": [
    {
      "magFilter": 9729,
      "minFilter": 9987,
      "wrapS": 10497,
      "wrapT": 10497
    }
  ],
  "scene": 0,
  "scenes": [
    {
      "name": "Sketchfab_Scene",
      "nodes": [
        0
      ]
    }
  ],
  "textures": [
    {
      "sampler": 0,
      "source": 0
    },
    {
      "sampler": 0,
      "source": 1
    },
    {
      "sampler": 0,
      "source": 2
    }
  ]
}
