{
	"asset":{
		"generator":"Khronos glTF Blender I/O v4.4.56",
		"version":"2.0"
	},
	"extensionsUsed":[
		"KHR_materials_specular"
	],
	"scene":0,
	"scenes":[
		{
			"name":"Scene",
			"nodes":[
				0
			]
		}
	],
	"nodes":[
		{
			"mesh":0,
			"name":"karambit_low",
			"rotation":[
				0.7071068286895752,
				0,
				0,
				0.7071068286895752
			],
			"scale":[
				0.009999999776482582,
				0.009999999776482582,
				0.009999999776482582
			]
		}
	],
	"materials":[
		{
			"doubleSided":true,
			"extensions":{
				"KHR_materials_specular":{
					"specularColorFactor":[
						2.0,
						2.0,
						2.0
					]
				}
			},
			"name":"Karambit",
			"normalTexture":{
				"index":0
			},
			"pbrMetallicRoughness":{
				"baseColorTexture":{
					"index":1
				},
				"metallicRoughnessTexture":{
					"index":2
				}
			}
		}
	],
	"meshes":[
		{
			"name":"\u7db2\u683c",
			"primitives":[
				{
					"attributes":{
						"POSITION":0,
						"NORMAL":1,
						"TEXCOORD_0":2,
						"COLOR_0":3,
						"COLOR_1":4
					},
					"indices":5,
					"material":0
				}
			]
		}
	],
	"textures":[
		{
			"sampler":0,
			"source":0
		},
		{
			"sampler":0,
			"source":1
		},
		{
			"sampler":0,
			"source":2
		}
	],
	"images":[
		{
			"mimeType":"image/png",
			"name":"Normal",
			"uri":"Normal.png"
		},
		{
			"mimeType":"image/png",
			"name":"BaseColor",
			"uri":"BaseColor.png"
		},
		{
			"mimeType":"image/png",
			"name":"Metallic-Roughness",
			"uri":"Metallic-Roughness.png"
		}
	],
	"accessors":[
		{
			"bufferView":0,
			"componentType":5126,
			"count":6235,
			"max":[
				215.18544006347656,
				12.123101234436035,
				16.866477966308594
			],
			"min":[
				-252.14657592773438,
				-12.123101234436035,
				-168.0135955810547
			],
			"type":"VEC3"
		},
		{
			"bufferView":1,
			"componentType":5126,
			"count":6235,
			"type":"VEC3"
		},
		{
			"bufferView":2,
			"componentType":5126,
			"count":6235,
			"type":"VEC2"
		},
		{
			"bufferView":3,
			"componentType":5121,
			"count":6235,
			"normalized":true,
			"type":"VEC4"
		},
		{
			"bufferView":4,
			"componentType":5123,
			"count":6235,
			"normalized":true,
			"type":"VEC4"
		},
		{
			"bufferView":5,
			"componentType":5123,
			"count":26874,
			"type":"SCALAR"
		}
	],
	"bufferViews":[
		{
			"buffer":0,
			"byteLength":74820,
			"byteOffset":0,
			"target":34962
		},
		{
			"buffer":0,
			"byteLength":74820,
			"byteOffset":74820,
			"target":34962
		},
		{
			"buffer":0,
			"byteLength":49880,
			"byteOffset":149640,
			"target":34962
		},
		{
			"buffer":0,
			"byteLength":24940,
			"byteOffset":199520,
			"target":34962
		},
		{
			"buffer":0,
			"byteLength":49880,
			"byteOffset":224460,
			"target":34962
		},
		{
			"buffer":0,
			"byteLength":53748,
			"byteOffset":274340,
			"target":34963
		}
	],
	"samplers":[
		{
			"magFilter":9729,
			"minFilter":9987
		}
	],
	"buffers":[
		{
			"byteLength":328088,
			"uri":"karambit-knife.bin"
		}
	]
}
